<svg xmlns="http://www.w3.org/2000/svg" viewBox="0 0 372.19 306.25"><defs><style>.cls-1{fill:none;}.cls-2{font-size:24px;font-family:Noteworthy-Light, Noteworthy;}</style></defs><title>sumida_fireworks_icon</title><g id="Layer_2" data-name="Layer 2"><g id="Layer_1-2" data-name="Layer 1"><path class="cls-1" d="M149,86.69c.92-6.27,1.37-16.1-.5-18.32-2.75-3.26-10-5.49-18.87-5.81-10.89-.4-21.13,2-24.9,5.89-2,2.05-.81,11.8.73,18.45h45Z"/><path class="cls-1" d="M196.69,120.91a40.5,40.5,0,1,0,40.5,40.5A40.55,40.55,0,0,0,196.69,120.91Z"/><path class="cls-1" d="M310.19,89.91h-227a17,17,0,0,0-17,17v109a17,17,0,0,0,17,17h227a17,17,0,0,0,17-17v-109A17,17,0,0,0,310.19,89.91Zm-113.5,115a43.5,43.5,0,1,1,43.5-43.5A43.5,43.5,0,0,1,196.69,204.91Z"/><path d="M310.19,86.91H152c.45-3.18,2.12-16.52-1.2-20.47-4.79-5.69-16.32-6.7-21.06-6.88-9.86-.35-22.09,1.6-27.16,6.8-3.53,3.62-1.24,15.85-.2,20.55H83.19a20.06,20.06,0,0,0-20,20v109a20.06,20.06,0,0,0,20,20h227a20.06,20.06,0,0,0,20-20v-109A20.06,20.06,0,0,0,310.19,86.91ZM104.77,68.46c3.77-3.87,14-6.3,24.9-5.89,8.9.33,16.13,2.55,18.87,5.81,1.87,2.22,1.41,12,.5,18.32l1.48.22h-45C104,80.25,102.76,70.51,104.77,68.46ZM327.19,215.91a17,17,0,0,1-17,17h-227a17,17,0,0,1-17-17v-109a17,17,0,0,1,17-17h227a17,17,0,0,1,17,17Z"/><path d="M196.69,117.91a43.5,43.5,0,1,0,43.5,43.5A43.5,43.5,0,0,0,196.69,117.91Zm0,84a40.5,40.5,0,1,1,40.5-40.5A40.55,40.55,0,0,1,196.69,201.91Z"/><text class="cls-2" transform="translate(29.33 71.43) rotate(-43.32)"> </text><text class="cls-2" transform="translate(35.35 65.94) rotate(-36.81)"> </text><text class="cls-2" transform="matrix(0.85, -0.53, 0.53, 0.85, 42.06, 61.04)"> </text><text class="cls-2" transform="matrix(0.89, -0.46, 0.46, 0.89, 49.06, 56.59)">S</text><text class="cls-2" transform="matrix(0.92, -0.39, 0.39, 0.92, 62.89, 49.63)">u</text><text class="cls-2" transform="translate(74.57 44.64) rotate(-19.65)">m</text><text class="cls-2" transform="matrix(0.96, -0.3, 0.3, 0.96, 91.72, 38.72)">i</text><text class="cls-2" transform="translate(97.85 36.8) rotate(-15.45)">d</text><text class="cls-2" transform="translate(109.91 33.5) rotate(-13.39)">a</text><text class="cls-2" transform="translate(122.59 30.55) rotate(-11.69)"> </text><text class="cls-2" transform="translate(130.92 28.82) rotate(-9.91)">F</text><text class="cls-2" transform="translate(145.24 26.41) rotate(-8.29)">i</text><text class="cls-2" transform="translate(151.62 25.48) rotate(-6.98)">r</text><text class="cls-2" transform="matrix(1, -0.09, 0.09, 1, 160.95, 24.34)">e</text><text class="cls-2" transform="translate(173.42 23.17) rotate(-2.81)">w</text><text class="cls-2" transform="matrix(1, -0.01, 0.01, 1, 190.58, 22.45)">o</text><text class="cls-2" transform="matrix(1, 0.04, -0.04, 1, 203.75, 22.46)">r</text><text class="cls-2" transform="translate(214.07 22.84) rotate(4.07)">k</text><text class="cls-2" transform="translate(225.48 23.66) rotate(5.88)">s</text><text class="cls-2" transform="matrix(0.99, 0.13, -0.13, 0.99, 238.31, 25.05)"> </text><text class="cls-2" transform="translate(246.77 26.16) rotate(9.35)">F</text><text class="cls-2" transform="translate(259.48 28.28) rotate(11.17)">e</text><text class="cls-2" transform="translate(271.1 30.59) rotate(13.08)">s</text><text class="cls-2" transform="translate(282.42 33.25) rotate(14.77)">t</text><text class="cls-2" transform="translate(292.44 35.95) rotate(16.22)">i</text><text class="cls-2" transform="translate(298.14 37.58) rotate(17.88)">v</text><text class="cls-2" transform="translate(308.96 41.08) rotate(20.2)">a</text><text class="cls-2" transform="translate(321.68 45.89) rotate(22.52)">l</text><text class="cls-2" transform="translate(53.04 263.77) rotate(26.11)">J</text><text class="cls-2" transform="translate(65.99 269.99) rotate(22.43)">u</text><text class="cls-2" transform="matrix(0.94, 0.35, -0.35, 0.94, 77.02, 274.44)">l</text><text class="cls-2" transform="translate(81.37 276.09) rotate(18.64)">y</text><text class="cls-2" transform="translate(93.25 280.03) rotate(16.71)"> </text><text class="cls-2" transform="matrix(0.97, 0.25, -0.25, 0.97, 100.73, 282.34)">2</text><text class="cls-2" transform="matrix(0.98, 0.2, -0.2, 0.98, 117.5, 286.65)">0</text><text class="cls-2" transform="translate(135.22 290.2) rotate(9.8)">1</text><text class="cls-2" transform="translate(141.72 291.38) rotate(7.96)">6</text><text class="cls-2" transform="matrix(0.99, 0.1, -0.1, 0.99, 159.13, 293.71)"> </text><text class="cls-2" transform="translate(167.02 294.73) rotate(3.16)">@</text><text class="cls-2" transform="translate(193.62 295.92) rotate(-0.23)"> </text><text class="cls-2" transform="translate(201.45 295.95) rotate(-2.22)">T</text><text class="cls-2" transform="translate(212.48 295.54) rotate(-3.85)">o</text><text class="cls-2" transform="translate(224.92 294.68) rotate(-5.91)">k</text><text class="cls-2" transform="matrix(0.99, -0.13, 0.13, 0.99, 236.54, 293.47)">y</text><text class="cls-2" transform="translate(248.94 291.77) rotate(-9.6)">o</text><text class="cls-2" transform="translate(261.12 289.65) rotate(-11.04)">,</text><text class="cls-2" transform="translate(267.38 288.43) rotate(-12.12)"> </text><text class="cls-2" transform="translate(274.98 286.82) rotate(-13.86)">J</text><text class="cls-2" transform="matrix(0.96, -0.28, 0.28, 0.96, 288.65, 283.4)">a</text><text class="cls-2" transform="translate(300.94 279.81) rotate(-18.46)">p</text><text class="cls-2" transform="matrix(0.93, -0.36, 0.36, 0.93, 311.71, 276.21)">a</text><text class="cls-2" transform="translate(324.08 271.43) rotate(-24.24)">n</text></g></g></svg>